<mxfile host="app.diagrams.net" modified="2024-03-05T08:54:14.910Z" agent="Mozilla/5.0 (Windows NT 10.0; Win64; x64) AppleWebKit/537.36 (KHTML, like Gecko) Chrome/120.0.0.0 Safari/537.36" etag="vwWsfhLTD4NCzuqgVJXl" version="24.0.1" type="github">
  <diagram name="第 1 页" id="hdfHfnW4J8s0pxE1J6MG">
    <mxGraphModel dx="1050" dy="530" grid="1" gridSize="10" guides="1" tooltips="1" connect="1" arrows="1" fold="1" page="1" pageScale="1" pageWidth="827" pageHeight="1169" math="0" shadow="0">
      <root>
        <mxCell id="0" />
        <mxCell id="1" parent="0" />
        <mxCell id="DYv4_KJz3e5PC-UhnC1p-1" value="&lt;font face=&quot;Lucida Console&quot;&gt;IGenericReference&lt;/font&gt;" style="swimlane;fontStyle=1;align=center;verticalAlign=top;childLayout=stackLayout;horizontal=1;startSize=26;horizontalStack=0;resizeParent=1;resizeParentMax=0;resizeLast=0;collapsible=1;marginBottom=0;whiteSpace=wrap;html=1;fillColor=#60a917;strokeColor=#2D7600;fontColor=#ffffff;" vertex="1" parent="1">
          <mxGeometry x="160" y="130" width="310" height="90" as="geometry" />
        </mxCell>
        <mxCell id="DYv4_KJz3e5PC-UhnC1p-2" value="&amp;nbsp;" style="text;strokeColor=none;fillColor=none;align=left;verticalAlign=top;spacingLeft=4;spacingRight=4;overflow=hidden;rotatable=0;points=[[0,0.5],[1,0.5]];portConstraint=eastwest;whiteSpace=wrap;html=1;" vertex="1" parent="DYv4_KJz3e5PC-UhnC1p-1">
          <mxGeometry y="26" width="310" height="26" as="geometry" />
        </mxCell>
        <mxCell id="DYv4_KJz3e5PC-UhnC1p-3" value="" style="line;strokeWidth=1;fillColor=none;align=left;verticalAlign=middle;spacingTop=-1;spacingLeft=3;spacingRight=3;rotatable=0;labelPosition=right;points=[];portConstraint=eastwest;strokeColor=inherit;" vertex="1" parent="DYv4_KJz3e5PC-UhnC1p-1">
          <mxGeometry y="52" width="310" height="8" as="geometry" />
        </mxCell>
        <mxCell id="DYv4_KJz3e5PC-UhnC1p-4" value="&lt;font face=&quot;Lucida Console&quot;&gt;+&amp;nbsp;$invoke(String args)&lt;/font&gt;" style="text;strokeColor=none;fillColor=none;align=left;verticalAlign=top;spacingLeft=4;spacingRight=4;overflow=hidden;rotatable=0;points=[[0,0.5],[1,0.5]];portConstraint=eastwest;whiteSpace=wrap;html=1;" vertex="1" parent="DYv4_KJz3e5PC-UhnC1p-1">
          <mxGeometry y="60" width="310" height="30" as="geometry" />
        </mxCell>
        <mxCell id="DYv4_KJz3e5PC-UhnC1p-5" value="&lt;font face=&quot;Lucida Console&quot;&gt;GenericReferenceProxy&lt;/font&gt;" style="swimlane;fontStyle=1;align=center;verticalAlign=top;childLayout=stackLayout;horizontal=1;startSize=26;horizontalStack=0;resizeParent=1;resizeParentMax=0;resizeLast=0;collapsible=1;marginBottom=0;whiteSpace=wrap;html=1;fillColor=#0050ef;strokeColor=#001DBC;fontColor=#ffffff;" vertex="1" parent="1">
          <mxGeometry x="160" y="300" width="310" height="120" as="geometry" />
        </mxCell>
        <mxCell id="DYv4_KJz3e5PC-UhnC1p-6" value="&lt;font face=&quot;Lucida Console&quot;&gt;-&amp;nbsp;genericService: GenericService&lt;br&gt;- methodName&lt;span style=&quot;background-color: initial;&quot;&gt;: String&lt;/span&gt;&lt;/font&gt;" style="text;strokeColor=none;fillColor=none;align=left;verticalAlign=top;spacingLeft=4;spacingRight=4;overflow=hidden;rotatable=0;points=[[0,0.5],[1,0.5]];portConstraint=eastwest;whiteSpace=wrap;html=1;" vertex="1" parent="DYv4_KJz3e5PC-UhnC1p-5">
          <mxGeometry y="26" width="310" height="44" as="geometry" />
        </mxCell>
        <mxCell id="DYv4_KJz3e5PC-UhnC1p-7" value="" style="line;strokeWidth=1;fillColor=none;align=left;verticalAlign=middle;spacingTop=-1;spacingLeft=3;spacingRight=3;rotatable=0;labelPosition=right;points=[];portConstraint=eastwest;strokeColor=inherit;" vertex="1" parent="DYv4_KJz3e5PC-UhnC1p-5">
          <mxGeometry y="70" width="310" height="8" as="geometry" />
        </mxCell>
        <mxCell id="DYv4_KJz3e5PC-UhnC1p-8" value="&lt;font face=&quot;Lucida Console&quot;&gt;+&amp;nbsp;intercept(Object obj, Method method, Object[] args, MethodProxy proxy): Object&lt;/font&gt;" style="text;strokeColor=none;fillColor=none;align=left;verticalAlign=top;spacingLeft=4;spacingRight=4;overflow=hidden;rotatable=0;points=[[0,0.5],[1,0.5]];portConstraint=eastwest;whiteSpace=wrap;html=1;" vertex="1" parent="DYv4_KJz3e5PC-UhnC1p-5">
          <mxGeometry y="78" width="310" height="42" as="geometry" />
        </mxCell>
        <mxCell id="DYv4_KJz3e5PC-UhnC1p-9" value="&lt;font face=&quot;Lucida Console&quot;&gt;GenericReferenceProxyFactory&lt;/font&gt;" style="swimlane;fontStyle=1;align=center;verticalAlign=top;childLayout=stackLayout;horizontal=1;startSize=26;horizontalStack=0;resizeParent=1;resizeParentMax=0;resizeLast=0;collapsible=1;marginBottom=0;whiteSpace=wrap;html=1;fillColor=#e3c800;strokeColor=#B09500;fontColor=#000000;" vertex="1" parent="1">
          <mxGeometry x="80" y="500" width="410" height="110" as="geometry" />
        </mxCell>
        <mxCell id="DYv4_KJz3e5PC-UhnC1p-10" value="&lt;font face=&quot;Lucida Console&quot;&gt;-&amp;nbsp;genericService: GenericService&lt;br&gt;-&amp;nbsp;&lt;span style=&quot;background-color: initial;&quot;&gt;genericReferenceCache:&amp;nbsp;&lt;/span&gt;Map&amp;lt;String, IGenericReference&amp;gt;&lt;/font&gt;" style="text;strokeColor=none;fillColor=none;align=left;verticalAlign=top;spacingLeft=4;spacingRight=4;overflow=hidden;rotatable=0;points=[[0,0.5],[1,0.5]];portConstraint=eastwest;whiteSpace=wrap;html=1;" vertex="1" parent="DYv4_KJz3e5PC-UhnC1p-9">
          <mxGeometry y="26" width="410" height="44" as="geometry" />
        </mxCell>
        <mxCell id="DYv4_KJz3e5PC-UhnC1p-11" value="" style="line;strokeWidth=1;fillColor=none;align=left;verticalAlign=middle;spacingTop=-1;spacingLeft=3;spacingRight=3;rotatable=0;labelPosition=right;points=[];portConstraint=eastwest;strokeColor=inherit;" vertex="1" parent="DYv4_KJz3e5PC-UhnC1p-9">
          <mxGeometry y="70" width="410" height="8" as="geometry" />
        </mxCell>
        <mxCell id="DYv4_KJz3e5PC-UhnC1p-12" value="&lt;font face=&quot;Lucida Console&quot;&gt;+ newInstance(String method):&amp;nbsp;IGenericReference&lt;/font&gt;" style="text;strokeColor=none;fillColor=none;align=left;verticalAlign=top;spacingLeft=4;spacingRight=4;overflow=hidden;rotatable=0;points=[[0,0.5],[1,0.5]];portConstraint=eastwest;whiteSpace=wrap;html=1;" vertex="1" parent="DYv4_KJz3e5PC-UhnC1p-9">
          <mxGeometry y="78" width="410" height="32" as="geometry" />
        </mxCell>
        <mxCell id="DYv4_KJz3e5PC-UhnC1p-13" value="&lt;font face=&quot;Lucida Console&quot;&gt;GenericReferenceRegistry&lt;/font&gt;" style="swimlane;fontStyle=1;align=center;verticalAlign=top;childLayout=stackLayout;horizontal=1;startSize=26;horizontalStack=0;resizeParent=1;resizeParentMax=0;resizeLast=0;collapsible=1;marginBottom=0;whiteSpace=wrap;html=1;fillColor=#0050ef;strokeColor=#001DBC;fontColor=#ffffff;" vertex="1" parent="1">
          <mxGeometry x="570" y="485" width="500" height="140" as="geometry" />
        </mxCell>
        <mxCell id="DYv4_KJz3e5PC-UhnC1p-14" value="&lt;font face=&quot;Lucida Console&quot;&gt;- configuration: Configuration&lt;br&gt;-&amp;nbsp;&lt;span style=&quot;background-color: initial;&quot;&gt;knownGenericReferences:&amp;nbsp;&lt;/span&gt;Map&amp;lt;String, GenericReferenceProxyFactory&amp;gt;&lt;/font&gt;" style="text;strokeColor=none;fillColor=none;align=left;verticalAlign=top;spacingLeft=4;spacingRight=4;overflow=hidden;rotatable=0;points=[[0,0.5],[1,0.5]];portConstraint=eastwest;whiteSpace=wrap;html=1;" vertex="1" parent="DYv4_KJz3e5PC-UhnC1p-13">
          <mxGeometry y="26" width="500" height="44" as="geometry" />
        </mxCell>
        <mxCell id="DYv4_KJz3e5PC-UhnC1p-15" value="" style="line;strokeWidth=1;fillColor=none;align=left;verticalAlign=middle;spacingTop=-1;spacingLeft=3;spacingRight=3;rotatable=0;labelPosition=right;points=[];portConstraint=eastwest;strokeColor=inherit;" vertex="1" parent="DYv4_KJz3e5PC-UhnC1p-13">
          <mxGeometry y="70" width="500" height="8" as="geometry" />
        </mxCell>
        <mxCell id="DYv4_KJz3e5PC-UhnC1p-16" value="&lt;font face=&quot;Lucida Console&quot;&gt;+&amp;nbsp;addGenericReference(String application, String interfaceName, String methodName)&lt;br&gt;+ getGenericReference(String methodName): IGenericReference&lt;br&gt;&lt;/font&gt;" style="text;strokeColor=none;fillColor=none;align=left;verticalAlign=top;spacingLeft=4;spacingRight=4;overflow=hidden;rotatable=0;points=[[0,0.5],[1,0.5]];portConstraint=eastwest;whiteSpace=wrap;html=1;" vertex="1" parent="DYv4_KJz3e5PC-UhnC1p-13">
          <mxGeometry y="78" width="500" height="62" as="geometry" />
        </mxCell>
        <mxCell id="DYv4_KJz3e5PC-UhnC1p-17" value="&lt;font face=&quot;Lucida Console&quot;&gt;Configuration&lt;/font&gt;" style="swimlane;fontStyle=1;align=center;verticalAlign=top;childLayout=stackLayout;horizontal=1;startSize=26;horizontalStack=0;resizeParent=1;resizeParentMax=0;resizeLast=0;collapsible=1;marginBottom=0;whiteSpace=wrap;html=1;fillColor=#0050ef;strokeColor=#001DBC;fontColor=#ffffff;" vertex="1" parent="1">
          <mxGeometry x="570" y="180" width="500" height="170" as="geometry" />
        </mxCell>
        <mxCell id="DYv4_KJz3e5PC-UhnC1p-18" value="&lt;font face=&quot;Lucida Console&quot;&gt;- registry: GenericReferenceRegistry&lt;br&gt;-&amp;nbsp;&lt;span style=&quot;background-color: initial;&quot;&gt;applicationConfigMap:&amp;nbsp;&lt;/span&gt;Map&amp;lt;String, ApplicationConfig&amp;gt;&lt;br&gt;- registryConfigMap: Map&amp;lt;String, RegistryConfig&amp;gt;&lt;br&gt;- referenceConfigMap: Map&amp;lt;String, ReferenceConfig&amp;lt;GenericService&amp;gt;&amp;gt;&lt;br&gt;&lt;/font&gt;" style="text;strokeColor=none;fillColor=none;align=left;verticalAlign=top;spacingLeft=4;spacingRight=4;overflow=hidden;rotatable=0;points=[[0,0.5],[1,0.5]];portConstraint=eastwest;whiteSpace=wrap;html=1;" vertex="1" parent="DYv4_KJz3e5PC-UhnC1p-17">
          <mxGeometry y="26" width="500" height="74" as="geometry" />
        </mxCell>
        <mxCell id="DYv4_KJz3e5PC-UhnC1p-19" value="" style="line;strokeWidth=1;fillColor=none;align=left;verticalAlign=middle;spacingTop=-1;spacingLeft=3;spacingRight=3;rotatable=0;labelPosition=right;points=[];portConstraint=eastwest;strokeColor=inherit;" vertex="1" parent="DYv4_KJz3e5PC-UhnC1p-17">
          <mxGeometry y="100" width="500" height="8" as="geometry" />
        </mxCell>
        <mxCell id="DYv4_KJz3e5PC-UhnC1p-20" value="&lt;font face=&quot;Lucida Console&quot;&gt;+&amp;nbsp;addGenericReference(String application, String interfaceName, String methodName)&lt;br&gt;+ getGenericReference(String methodName): IGenericReference&lt;br&gt;&lt;/font&gt;" style="text;strokeColor=none;fillColor=none;align=left;verticalAlign=top;spacingLeft=4;spacingRight=4;overflow=hidden;rotatable=0;points=[[0,0.5],[1,0.5]];portConstraint=eastwest;whiteSpace=wrap;html=1;" vertex="1" parent="DYv4_KJz3e5PC-UhnC1p-17">
          <mxGeometry y="108" width="500" height="62" as="geometry" />
        </mxCell>
        <mxCell id="DYv4_KJz3e5PC-UhnC1p-21" value="依赖" style="endArrow=open;endSize=12;dashed=1;html=1;rounded=0;exitX=0.5;exitY=0;exitDx=0;exitDy=0;" edge="1" parent="1" source="DYv4_KJz3e5PC-UhnC1p-5">
          <mxGeometry width="160" relative="1" as="geometry">
            <mxPoint x="200" y="700" as="sourcePoint" />
            <mxPoint x="315" y="220" as="targetPoint" />
          </mxGeometry>
        </mxCell>
        <mxCell id="DYv4_KJz3e5PC-UhnC1p-22" value="创建" style="endArrow=open;endSize=12;dashed=1;html=1;rounded=0;exitX=0.5;exitY=0;exitDx=0;exitDy=0;" edge="1" parent="1">
          <mxGeometry width="160" relative="1" as="geometry">
            <mxPoint x="314.5" y="500" as="sourcePoint" />
            <mxPoint x="314.5" y="420" as="targetPoint" />
          </mxGeometry>
        </mxCell>
        <mxCell id="DYv4_KJz3e5PC-UhnC1p-23" value="依赖" style="endArrow=open;endSize=12;dashed=1;html=1;rounded=0;" edge="1" parent="1">
          <mxGeometry width="160" relative="1" as="geometry">
            <mxPoint x="570" y="562" as="sourcePoint" />
            <mxPoint x="490" y="562" as="targetPoint" />
          </mxGeometry>
        </mxCell>
        <mxCell id="DYv4_KJz3e5PC-UhnC1p-24" value="" style="endArrow=diamondThin;endFill=0;endSize=24;html=1;rounded=0;" edge="1" parent="1">
          <mxGeometry width="160" relative="1" as="geometry">
            <mxPoint x="780" y="350" as="sourcePoint" />
            <mxPoint x="780" y="485" as="targetPoint" />
          </mxGeometry>
        </mxCell>
        <mxCell id="DYv4_KJz3e5PC-UhnC1p-25" value="聚合" style="edgeLabel;html=1;align=center;verticalAlign=middle;resizable=0;points=[];" vertex="1" connectable="0" parent="DYv4_KJz3e5PC-UhnC1p-24">
          <mxGeometry x="-0.0993" y="1" relative="1" as="geometry">
            <mxPoint as="offset" />
          </mxGeometry>
        </mxCell>
        <mxCell id="DYv4_KJz3e5PC-UhnC1p-26" value="" style="endArrow=diamondThin;endFill=0;endSize=24;html=1;rounded=0;" edge="1" parent="1">
          <mxGeometry width="160" relative="1" as="geometry">
            <mxPoint x="870" y="485" as="sourcePoint" />
            <mxPoint x="870" y="350" as="targetPoint" />
          </mxGeometry>
        </mxCell>
        <mxCell id="DYv4_KJz3e5PC-UhnC1p-27" value="聚合" style="edgeLabel;html=1;align=center;verticalAlign=middle;resizable=0;points=[];" vertex="1" connectable="0" parent="DYv4_KJz3e5PC-UhnC1p-26">
          <mxGeometry x="0.04" y="1" relative="1" as="geometry">
            <mxPoint as="offset" />
          </mxGeometry>
        </mxCell>
      </root>
    </mxGraphModel>
  </diagram>
</mxfile>
